PathFileType	4	(X/Y/Z)	Walk1.trc
DataRate	CameraRate	NumFrames	NumMarkers	Units	OrigDataRate	OrigDataStartFrame	OrigNumFrames
200.000000	200.000000	4	61	mm	200.000000	724	925
Frame#	Times		RCAR		LTH3		RTH2		LBHD		RWRU		LWRU		LUA1		RTH3		LElbow		RFA1		LFA1		LCAR		LElbowM		C7		RTB3		RToe		RPSI		RTB2		RTB1		RMT5		LTH2		RElbow		RLFC		RBHD		RMT1		RTB4		RMMAL		LWRR		T10		RLMAL		LPSI		RBack		RCAL		LLFC		STRN		LASI		LTB3		RUA1		LACR1		RASI		RElbowM		LMMAL		RFHD		LTB1		LTB2		LMFC		LCAL		RTH1		LTB4		RMFC		LFHD		LLMAL		LMT5		RACR1		RTH4		LTH4		CLAV		RWRR		LToe		LMT1		LTH1
			X1	Y1	Z1	X2	Y2	Z2	X3	Y3	Z3	X4	Y4	Z4	X5	Y5	Z5	X6	Y6	Z6	X7	Y7	Z7	X8	Y8	Z8	X9	Y9	Z9	X10	Y10	Z10	X11	Y11	Z11	X12	Y12	Z12	X13	Y13	Z13	X14	Y14	Z14	X15	Y15	Z15	X16	Y16	Z16	X17	Y17	Z17	X18	Y18	Z18	X19	Y19	Z19	X20	Y20	Z20	X21	Y21	Z21	X22	Y22	Z22	X23	Y23	Z23	X24	Y24	Z24	X25	Y25	Z25	X26	Y26	Z26	X27	Y27	Z27	X28	Y28	Z28	X29	Y29	Z29	X30	Y30	Z30	X31	Y31	Z31	X32	Y32	Z32	X33	Y33	Z33	X34	Y34	Z34	X35	Y35	Z35	X36	Y36	Z36	X37	Y37	Z37	X38	Y38	Z38	X39	Y39	Z39	X40	Y40	Z40	X41	Y41	Z41	X42	Y42	Z42	X43	Y43	Z43	X44	Y44	Z44	X45	Y45	Z45	X46	Y46	Z46	X47	Y47	Z47	X48	Y48	Z48	X49	Y49	Z49	X50	Y50	Z50	X51	Y51	Z51	X52	Y52	Z52	X53	Y53	Z53	X54	Y54	Z54	X55	Y55	Z55	X56	Y56	Z56	X57	Y57	Z57	X58	Y58	Z58	X59	Y59	Z59	X60	Y60	Z60	X61	Y61	Z61

724	3.62	5.4928	805.12	318.9	-89.01	604.23	-176.79	154.33	718.49	148.55	-15.249	1623	-96.156	-52.014	838.91	305.57	173.84	879.88	-303.86	18.516	1282.4	-292.67	115.26	606.18	168.98	25.772	1126.6	-330.58	-73.06	975.03	298.95	98.461	991.24	-329.6	256.09	875.29	-307.9	-12.475	1104.4	-265.9	-41.74	1495	-24.931	231.47	198.9	94.828	397.99	53.564	123.58	-146.26	1002.9	36.475	197.83	283.67	160.45	217.49	384.42	101.23	302.78	29.376	172.36	2.8947	677.79	-165.84	-80.493	1123.8	269.87	140.28	498.56	166.35	-4.8154	1631.2	45.184	350.76	48.408	99.207	225.79	291.55	96.612	237.82	98.377	61.079	228.69	921.49	-256.48	-151.59	1274.7	-22.199	204.41	69.087	138.69	-151.72	1002.2	-40.403	-123.65	1408.9	104.02	156.72	30.223	85.074	-129.96	505.23	-166.75	130.59	1230.2	-26.742	52.345	1015.9	-157.09	-239.87	198.05	-92.95	-26.319	1271.6	235.42	30.63	1448.4	-188.6	69.696	1020	130.96	-101.24	1107.8	193.02	-306.67	110.83	-55.627	170.05	1664.8	8.8691	-144.78	357.98	-90.105	-204.98	291.5	-163.85	-117.04	508.79	-37.198	-404.11	73.031	-99.201	60.757	789.06	189.09	-190.3	280.89	-90.072	151.7	509.39	33.365	165.45	1661.5	-67.56	-334.4	99.423	-139.51	-251.62	22.365	-167.54	30.475	1440.5	138.84	92.298	698.8	184.52	-63.401	692.03	-188.69	87.5	1403.4	-23.951	11.923	841.67	263.11	-151.45	28.678	-95.792	-204.42	38.029	-82.568	-35.441	780.34	-201.65
725	3.625	11.154	804.68	319.82	-82.413	603.77	-176.07	161.06	719.01	148.92	-9.8404	1623.1	-94.908	-46.279	838.63	306.63	177.57	879.39	-302.8	23.111	1282.3	-291.5	121.96	606.68	169.44	29.951	1126.5	-329.32	-66.944	974.82	300.05	102.33	990.9	-328.43	259.8	874.68	-307.04	-8.1498	1104.4	-264.54	-36.177	1495.1	-23.696	234.17	198.25	94.685	399.63	50.421	122.7	-140.26	1002.9	37.559	202.27	283.4	160.66	222.31	383.92	101.18	303.5	28.211	172.46	9.2385	677.59	-164.98	-74.083	1123.5	270.97	146.79	498.94	167	0.75387	1631.2	46.428	351.82	46.44	98.654	229.53	290.96	96.481	239.16	97.646	60.947	232.59	920.95	-255.57	-145.93	1274.7	-20.96	205.86	68.848	138.81	-145.83	1002.1	-39.349	-117.91	1408.7	105.34	157.14	30.797	85.478	-123.23	504.81	-166.22	136.37	1230.4	-25.771	58.207	1015.8	-155.79	-236.92	199.06	-92.84	-20.226	1271.3	236.55	35.889	1448.4	-187.58	75.862	1020.1	132.06	-95.098	1107.6	194.25	-304.78	112.74	-55.644	175.56	1664.9	9.9276	-139.58	357.58	-89.858	-200.7	292.04	-163.66	-110.36	508.29	-36.69	-402.81	76.768	-98.989	67.53	789.59	189.67	-186.19	281.17	-89.888	157.14	509.58	33.943	170.86	1661.7	-66.494	-332.86	101.83	-139.48	-251.63	22.802	-167.22	36.217	1440.4	139.97	99.023	699.31	185	-57.104	691.69	-187.8	93.072	1403.5	-22.905	17.485	841.13	263.97	-151.54	28.592	-95.836	-204.2	37.959	-82.496	-29.455	780.11	-200.61
726	3.63	16.928	804.32	320.69	-75.551	603.29	-175.38	167.74	719.6	149.32	-4.4156	1623.2	-93.66	-40.436	838.42	307.66	181.14	878.91	-301.73	27.692	1282.2	-290.32	128.61	607.26	170	34.08	1126.4	-328.01	-60.741	974.69	301.16	106.09	990.61	-327.22	263.35	874.04	-306.19	-3.8719	1104.4	-263.12	-30.61	1495.2	-22.464	236.73	197.67	94.593	401.13	47.562	121.97	-134.25	1003	38.638	206.54	283.17	160.91	227	383.47	101.2	304.09	27.249	172.67	15.783	677.44	-164.11	-67.609	1123.3	272.06	153.2	499.34	167.67	6.3391	1631.3	47.672	352.76	44.738	98.23	233.13	290.43	96.411	240.37	97.014	60.846	236.36	920.39	-254.67	-140.26	1274.7	-19.726	207.15	68.68	138.93	-139.95	1002	-38.308	-112.15	1408.6	106.68	157.53	31.34	85.871	-116.17	504.37	-165.72	142.16	1230.6	-24.797	64.08	1015.8	-154.46	-233.72	200.16	-92.772	-14.084	1271.2	237.68	41.161	1448.5	-186.56	82.024	1020.3	133.17	-88.915	1107.4	195.5	-302.65	114.78	-55.677	181.08	1665.1	10.989	-134.07	357.2	-89.69	-196.18	292.66	-163.51	-103.4	507.76	-36.228	-401.28	80.786	-98.726	74.259	790.21	190.29	-181.81	281.5	-89.764	162.54	509.83	34.562	176.29	1661.9	-65.423	-331.13	104.41	-139.44	-251.63	23.308	-166.88	41.977	1440.4	141.08	105.7	699.91	185.53	-50.607	691.35	-186.92	98.651	1403.7	-21.859	23.133	840.68	264.79	-151.66	28.497	-95.876	-203.96	37.869	-82.409	-23.338	779.9	-199.57
727	3.635	22.818	804.06	321.53	-68.415	602.8	-174.71	174.33	720.24	149.74	1.0245	1623.4	-92.416	-34.481	838.31	308.69	184.57	878.44	-300.63	32.261	1282.2	-289.11	135.19	607.91	170.65	38.16	1126.3	-326.67	-54.45	974.65	302.26	109.74	990.36	-325.99	266.75	873.36	-305.33	0.35982	1104.5	-261.66	-25.041	1495.4	-21.237	239.15	197.14	94.541	402.5	44.993	121.39	-128.25	1003.2	39.714	210.64	282.96	161.2	231.56	383.05	101.29	304.57	26.477	172.93	22.535	677.34	-163.24	-61.075	1123.2	273.17	159.49	499.74	168.37	11.938	1631.5	48.912	353.6	43.297	97.913	236.58	289.95	96.394	241.45	96.472	60.762	240.02	919.81	-253.76	-134.6	1274.8	-18.497	208.3	68.575	139.06	-134.07	1002	-37.274	-106.37	1408.6	108.02	157.88	31.842	86.244	-108.79	503.92	-165.27	147.94	1230.9	-23.824	69.96	1015.9	-153.11	-230.26	201.36	-92.753	-7.8933	1271.1	238.8	46.441	1448.7	-185.54	88.18	1020.6	134.28	-82.693	1107.4	196.75	-300.26	116.96	-55.73	186.61	1665.4	12.052	-128.25	356.83	-89.614	-191.41	293.37	-163.43	-96.127	507.19	-35.824	-399.49	85.089	-98.41	80.926	790.9	190.94	-177.13	281.89	-89.711	167.88	510.13	35.213	181.74	1662.2	-64.351	-329.19	107.18	-139.38	-251.59	23.896	-166.52	47.754	1440.5	142.19	112.31	700.57	186.13	-43.906	691.02	-186.05	104.23	1403.9	-20.817	28.867	840.33	265.58	-151.83	28.393	-95.911	-203.71	37.759	-82.305	-17.089	779.73	-198.51
